<mxfile host="app.diagrams.net" modified="2023-09-08T10:53:39.951Z" agent="Mozilla/5.0 (X11; Linux x86_64; rv:109.0) Gecko/20100101 Firefox/109.0" version="21.7.2" etag="YGy1Y2tesg6gXznk1Qm1" type="github">
  <diagram name="Page-1" id="-UVIQ4PTBxCNPtDLkRe3">
    <mxGraphModel>
      <root>
        <mxCell id="0" />
        <mxCell id="1" parent="0" />
      </root>
    </mxGraphModel>
  </diagram>
</mxfile>
